<?xml version="1.0" encoding="utf-8"?>
<!-- Designed by Vexels.com - 2020 All Rights Reserved - https://vexels.com/terms-and-conditions/  -->
<svg version="1.1" id="Layer_1" xmlns="http://www.w3.org/2000/svg" xmlns:xlink="http://www.w3.org/1999/xlink" x="0px" y="0px"
	 viewBox="0 0 1200 1200" enable-background="new 0 0 1200 1200" xml:space="preserve">
<g>
	<path fill="none" d="M989.93,442.516c-7.423-102.766-94.17-187.049-196.109-187.049c-4.751,0-9.531,0.358-14.588,0.741
		c-7.464,0.591-14.372-4.623-15.534-11.951c-15.2-96.05-96.794-165.762-194.006-165.762c-90.937,0-169.736,63.315-190.867,150.172
		c9.056-1.097,18.19-1.693,27.352-1.693c41.051,0,81.225,11.155,116.189,32.258c6.741,4.066,8.904,12.825,4.835,19.562
		c-2.671,4.431-7.381,6.887-12.209,6.887c-2.504,0-5.044-0.664-7.346-2.052c-30.526-18.425-65.608-28.16-101.469-28.16
		c-14.099,0-28.134,1.549-41.785,4.503c-0.132,0.033-0.238,0.115-0.372,0.144c-84.994,18.572-147.755,94.063-153.917,182.402H989.93
		z"/>
	<polygon fill="none" points="827.923,471.011 754.945,1121.506 856.765,1121.506 1007.918,471.011 	"/>
	<polygon fill="none" points="466.506,1121.506 585.749,1121.506 585.749,471.011 393.528,471.011 	"/>
	<polygon fill="none" points="726.273,1121.506 799.251,471.011 614.244,471.011 614.244,1121.506 	"/>
	<polygon fill="none" points="437.834,1121.506 364.856,471.011 192.082,471.011 343.235,1121.506 	"/>
	<path fill="#181918" d="M331.917,1150h536.167c6.63,0,12.376-4.567,13.878-11.023l157.769-678.99
		c0.981-4.233-0.021-8.682-2.72-12.087c-2.706-3.402-6.811-5.384-11.158-5.384h-7.329
		c-7.24-120.092-105.233-215.544-224.702-215.544c-1.468,0-2.922,0.028-4.362,0.073C767.101,123.709,676.658,50,569.694,50
		c-108.488,0-201.93,78.683-221.276,184.583C255.31,259.402,187.51,344.185,181.485,442.516h-7.337
		c-4.348,0-8.452,1.983-11.158,5.384c-2.699,3.405-3.701,7.854-2.72,12.087l157.769,678.99
		C319.541,1145.433,325.287,1150,331.917,1150z M799.251,471.011l-72.978,650.495H614.244V471.011H799.251z M585.749,1121.506
		H466.506l-72.978-650.495h192.222V1121.506z M856.765,1121.506h-101.82l72.978-650.495h179.995L856.765,1121.506z M364.021,260.114
		c0.134-0.029,0.24-0.112,0.372-0.144c13.651-2.954,27.686-4.503,41.785-4.503c35.861,0,70.944,9.736,101.469,28.16
		c2.303,1.388,4.842,2.052,7.346,2.052c4.828,0,9.537-2.456,12.209-6.887c4.07-6.737,1.906-15.496-4.835-19.562
		c-34.964-21.103-75.138-32.258-116.189-32.258c-9.162,0-18.296,0.597-27.352,1.693c21.131-86.857,99.93-150.172,190.867-150.172
		c97.212,0,178.806,69.712,194.006,165.762c1.162,7.329,8.07,12.543,15.534,11.951c5.057-0.383,9.837-0.741,14.588-0.741
		c101.939,0,188.686,84.283,196.109,187.049H210.105C216.266,354.176,279.027,278.686,364.021,260.114z M364.856,471.011
		l72.978,650.495h-94.599L192.082,471.011H364.856z"/>
</g>
</svg>
